<?xml version="1.0" standalone="no"?>
<!DOCTYPE svg PUBLIC "-//W3C//DTD SVG 20010904//EN"
 "http://www.w3.org/TR/2001/REC-SVG-20010904/DTD/svg10.dtd">
<svg version="1.0" xmlns="http://www.w3.org/2000/svg"
 width="194.000000pt" height="194.000000pt" viewBox="0 0 194.000000 194.000000"
 preserveAspectRatio="xMidYMid meet">
<metadata>
Created by potrace 1.11, written by Peter Selinger 2001-2013
</metadata>
<g transform="translate(0.000000,194.000000) scale(0.100000,-0.100000)"
fill="#000000" stroke="none">
<path d="M918 1744 c-2 -1 -30 -5 -63 -8 -33 -3 -71 -8 -85 -11 -14 -3 -36 -7
-49 -10 -128 -25 -243 -163 -292 -349 -14 -56 -37 -125 -49 -155 -13 -29 -31
-80 -39 -114 -10 -35 -23 -63 -33 -68 -10 -5 -26 -13 -35 -19 -10 -5 -36 -18
-58 -28 -91 -44 -163 -124 -197 -221 -16 -45 -18 -71 -14 -136 13 -172 61
-252 201 -331 55 -30 126 -60 165 -69 8 -2 35 -8 60 -14 64 -16 132 -23 230
-24 90 0 227 9 251 17 8 3 25 7 39 10 44 8 204 56 237 71 17 8 34 15 37 15 16
0 199 88 313 151 129 72 264 162 329 222 63 56 90 132 62 169 -7 9 -44 29 -83
44 -38 15 -90 39 -115 54 -64 36 -129 64 -136 57 -3 -3 -1 -14 4 -24 14 -26
17 -84 4 -113 -31 -76 -152 -146 -397 -231 -65 -22 -126 -42 -134 -44 -9 -2
-43 -11 -76 -19 -33 -9 -82 -19 -110 -22 -27 -4 -53 -8 -56 -10 -6 -3 -104 -5
-194 -3 -27 0 -115 18 -140 29 -88 35 -112 49 -151 89 -24 24 -42 47 -39 49 3
3 0 11 -6 18 -13 16 -22 82 -12 97 4 7 8 17 9 24 1 6 7 19 13 30 9 16 10 14
11 -13 0 -42 23 -94 52 -121 29 -27 102 -60 154 -70 46 -8 207 -7 279 1 59 8
237 43 280 56 206 62 302 105 391 176 85 68 115 109 103 141 -5 13 -11 46 -14
71 -15 132 -22 186 -30 232 -4 19 -8 44 -10 55 -11 70 -17 102 -22 120 -6 19
-9 27 -16 58 -22 90 -41 104 -147 112 -36 2 -101 16 -145 31 -60 20 -104 27
-177 29 -54 1 -99 1 -100 -1z m501 -126 c-7 -12 -21 -30 -33 -40 -23 -19 -194
-77 -250 -84 -124 -15 -293 -68 -433 -135 -167 -80 -217 -87 -244 -36 -12 22
-12 22 9 3 30 -26 92 -17 178 26 72 37 231 102 242 99 1 -1 18 5 38 14 30 12
63 20 204 49 25 5 71 15 100 21 8 2 15 4 15 5 0 1 9 3 21 5 42 8 110 43 134
68 31 33 34 33 19 5z"/>
</g>
</svg>
